<svg xmlns="http://www.w3.org/2000/svg" viewBox="0 0 306 306"><defs><style>.cls-1{fill:#f05133;}</style></defs><title>资源 1</title><g id="图层_2" data-name="图层 2"><g id="图层_1-2" data-name="图层 1"><path class="cls-1" d="M97.6,47.16c2.08,2.21,4,4.31,6,6.32Q117,67,130.47,80.35a2.78,2.78,0,0,1,.79,3.29,23.6,23.6,0,0,0,12.24,28.55,1.89,1.89,0,0,1,1.24,2q0,40.33,0,80.68a2.17,2.17,0,0,1-1.4,2.28A23.68,23.68,0,0,0,150,241.79a23.64,23.64,0,0,0,16.24-43.43,3.33,3.33,0,0,1-1.91-3.33c.07-25.74,0-51.48,0-77.22v-2.94l.39-.27c2.73,2.82,5.43,5.67,8.2,8.45q10.62,10.7,21.31,21.31a2.74,2.74,0,0,1,.74,3.19,23.63,23.63,0,1,0,45.74,11.63c2.94-14-7.73-27.63-22-28.05a39.58,39.58,0,0,0-7.49.77,2.37,2.37,0,0,1-2.37-.67q-11.64-11.68-23.29-23.35c-2.72-2.72-5.4-5.46-8.18-8.11a2.73,2.73,0,0,1-.87-3c2.26-9.31-.15-17.33-7.26-23.7-6.22-5.57-13.63-6.88-21.66-5a1.92,1.92,0,0,1-2.12-.42q-16.81-16.87-33.67-33.69a7.87,7.87,0,0,1-.54-.75c2.18-2.11,4.38-4.2,6.54-6.35q10.57-10.5,21.13-21a19.41,19.41,0,0,1,27.52-.1Q191,30.1,215.4,54.63l39,39q22.74,22.76,45.49,45.49A19.37,19.37,0,0,1,306,153.06a19,19,0,0,1-5.64,14q-18.72,18.75-37.47,37.51-47.08,47.11-94.16,94.21c-3,3-6.26,5.65-10.52,6.64-7.09,1.64-13.43.08-18.6-5.06-14.73-14.62-29.35-29.36-44-44.05q-24.48-24.46-49-48.93Q26.37,187.12,6.15,166.86c-8.15-8.17-8.22-20.05-.1-28.19q37.44-37.54,75-75L96,48.7C96.37,48.3,96.8,47.92,97.6,47.16Z"/></g></g></svg>