<?xml version="1.0" encoding="utf-8"?>
<!-- Generator: Adobe Illustrator 23.1.1, SVG Export Plug-In . SVG Version: 6.00 Build 0)  -->
<svg version="1.1" id="图层_1" xmlns="http://www.w3.org/2000/svg" xmlns:xlink="http://www.w3.org/1999/xlink" x="0px" y="0px"
	 viewBox="0 0 306 306" style="enable-background:new 0 0 306 306;" xml:space="preserve">
<style type="text/css">
	.st0{fill:#E64A19;}
</style>
<title>资源 1</title>
<g>
	<g id="图层_1-2">
		<path class="st0" d="M102.3,56.2c1.9,2,3.7,3.9,5.5,5.8c8.2,8.2,16.4,16.4,24.6,24.6c0.9,0.7,1.2,2,0.7,3
			c-3.3,10.3,1.5,21.4,11.2,26.1c0.8,0.3,1.2,1,1.1,1.8c0,24.6,0,49.2,0,73.8c0.1,0.9-0.4,1.8-1.3,2.1c-10.7,5.3-15.2,18.2-9.9,29
			c3.1,6.3,9.1,10.7,16,11.9c11.8,1.9,22.9-6.1,24.8-17.9c1.4-8.6-2.5-17.3-10-21.9c-1.2-0.5-1.9-1.8-1.7-3c0.1-23.6,0-47.1,0-70.7
			v-2.7l0.4-0.2c2.5,2.6,5,5.2,7.5,7.7c6.5,6.5,13,13,19.5,19.5c0.8,0.7,1.1,1.9,0.7,2.9c-3.5,11.4,2.8,23.5,14.2,27.1
			c11.4,3.5,23.5-2.8,27.1-14.2c0.2-0.7,0.4-1.5,0.6-2.2c2.7-12.8-7.1-25.3-20.1-25.7c-2.3,0-4.6,0.3-6.9,0.7
			c-0.8,0.2-1.6,0-2.2-0.6c-7.1-7.1-14.2-14.2-21.3-21.4c-2.5-2.5-4.9-5-7.5-7.4c-0.8-0.7-1.1-1.8-0.8-2.7
			c2.1-8.5-0.1-15.9-6.6-21.7c-5.7-5.1-12.5-6.3-19.8-4.6c-0.7,0.3-1.4,0.1-1.9-0.4c-10.3-10.3-20.5-20.6-30.8-30.8
			c-0.2-0.2-0.3-0.4-0.5-0.7c2-1.9,4-3.8,6-5.8c6.4-6.4,12.9-12.8,19.3-19.2c6.9-7,18.1-7,25.1-0.2c0,0,0,0,0.1,0.1
			c15,14.8,29.9,29.8,44.8,44.7l35.7,35.7c13.9,13.9,27.7,27.8,41.6,41.6c3.5,3.3,5.5,7.9,5.6,12.8c0.1,4.8-1.7,9.4-5.2,12.8
			c-11.4,11.4-22.8,22.9-34.3,34.3c-28.7,28.7-57.4,57.5-86.2,86.2c-2.7,2.7-5.7,5.2-9.6,6.1c-6.5,1.5-12.3,0.1-17-4.6
			c-13.5-13.4-26.9-26.9-40.3-40.3c-14.9-14.9-29.9-29.8-44.8-44.8c-12.3-12.4-24.7-24.7-37-37.1c-7.5-7.5-7.5-18.3-0.1-25.8
			C41.4,117,64.3,94.1,87.2,71.3l13.7-13.7C101.2,57.2,101.6,56.9,102.3,56.2z"/>
	</g>
</g>
</svg>
